{"accessors":[{"bufferView":0,"componentType":5125,"count":51642,"max":[18239.0],"min":[0.0],"type":"SCALAR"},{"bufferView":1,"componentType":5126,"count":18240,"max":[0.0003499999875202775,0.009600000455975533,0.0032212368678301574],"min":[-0.04295000061392784,-0.0003499999875202775,-0.0032500585075467827],"type":"VEC3"},{"bufferView":2,"componentType":5126,"count":18240,"max":[1.0,1.0,1.0],"min":[-1.0,-1.0,-1.0],"type":"VEC3"},{"bufferView":3,"componentType":5125,"count":47574,"max":[15901.0],"min":[0.0],"type":"SCALAR"},{"bufferView":4,"componentType":5126,"count":15902,"max":[0.0,0.002699983073398471,0.002899999963119626],"min":[-0.03999999910593033,-0.0009671933948993683,-0.0063492050394415859],"type":"VEC3"},{"bufferView":5,"componentType":5126,"count":15902,"max":[1.0,1.0,1.0],"min":[-1.0,-1.0,-1.0],"type":"VEC3"},{"bufferView":6,"componentType":5125,"count":42,"max":[18.0],"min":[0.0],"type":"SCALAR"},{"bufferView":7,"componentType":5126,"count":19,"max":[-0.002050000010058284,0.002687732921913266,-0.0029350861441344024],"min":[-0.037950001657009128,0.0024856189265847208,-0.004154530353844166],"type":"VEC3"},{"bufferView":8,"componentType":5126,"count":19,"max":[0.0,0.9989455342292786,0.4255412817001343],"min":[0.0,0.9049389958381653,-0.14164237678050996],"type":"VEC3"},{"bufferView":9,"componentType":5125,"count":3744,"max":[1413.0],"min":[0.0],"type":"SCALAR"},{"bufferView":10,"componentType":5126,"count":1414,"max":[0.0,0.00005999999848427251,3.086198664521311e-18],"min":[-0.03799999877810478,-4.336808689942018e-19,-0.0071000000461936],"type":"VEC3"},{"bufferView":11,"componentType":5126,"count":1414,"max":[1.0,1.0,1.0],"min":[-1.0,-1.0,-1.0],"type":"VEC3"},{"bufferView":12,"componentType":5125,"count":5112,"max":[2129.0],"min":[0.0],"type":"SCALAR"},{"bufferView":13,"componentType":5126,"count":2130,"max":[0.0,0.0005000000237487257,4.7704895589362198e-18],"min":[-0.03799999877810478,-2.168404344971009e-19,-0.005450000055134296],"type":"VEC3"},{"bufferView":14,"componentType":5126,"count":2130,"max":[1.0,1.0,1.0],"min":[-1.0,-1.0,-1.0],"type":"VEC3"},{"bufferView":15,"componentType":5125,"count":59874,"max":[20462.0],"min":[0.0],"type":"SCALAR"},{"bufferView":16,"componentType":5126,"count":20463,"max":[1.8634724839594607e-20,0.0014600000577047468,0.0025359271094202997],"min":[-0.03999999910593033,-0.004399999976158142,-0.009048901498317719],"type":"VEC3"},{"bufferView":17,"componentType":5126,"count":20463,"max":[1.0,1.0,1.0],"min":[-1.0,-1.0,-1.0],"type":"VEC3"},{"bufferView":18,"componentType":5125,"count":334908,"max":[113636.0],"min":[0.0],"type":"SCALAR"},{"bufferView":19,"componentType":5126,"count":113637,"max":[0.0031999999191612007,0.009999997913837433,0.022124383598566057],"min":[-0.01360000018030405,-0.0042196172289550308,-0.08599552512168884],"type":"VEC3"},{"bufferView":20,"componentType":5126,"count":113637,"max":[1.0,1.0,1.0],"min":[-1.0,-1.0,-1.0],"type":"VEC3"},{"bufferView":21,"componentType":5125,"count":252,"max":[95.0],"min":[0.0],"type":"SCALAR"},{"bufferView":22,"componentType":5126,"count":96,"max":[0.03620000183582306,0.005499999970197678,0.013000000268220902],"min":[-0.002199999988079071,0.005499999970197678,0.003000000026077032],"type":"VEC3"},{"bufferView":23,"componentType":5126,"count":96,"max":[6.982962656460617e-14,1.0,0.0],"min":[0.0,-1.0,-1.8170264301225367e-29],"type":"VEC3"},{"bufferView":24,"componentType":5125,"count":96411,"max":[26727.0],"min":[0.0],"type":"SCALAR"},{"bufferView":25,"componentType":5126,"count":26728,"max":[0.042186636477708819,0.008994214236736298,0.013000000268220902],"min":[-0.002199999988079071,0.0020057852379977705,0.003000000026077032],"type":"VEC3"},{"bufferView":26,"componentType":5126,"count":26728,"max":[1.0,0.9938904047012329,0.9954022765159607],"min":[-1.0,-0.9945168495178223,-0.9942204356193543],"type":"VEC3"},{"bufferView":27,"componentType":5125,"count":3633,"max":[1292.0],"min":[0.0],"type":"SCALAR"},{"bufferView":28,"componentType":5126,"count":1293,"max":[0.05000000074505806,0.010999999940395356,0.01600000075995922],"min":[-0.009999999776482582,0.0,0.0],"type":"VEC3"},{"bufferView":29,"componentType":5126,"count":1293,"max":[1.0,1.0,1.0],"min":[-1.0,-1.0,-1.0],"type":"VEC3"},{"bufferView":30,"componentType":5125,"count":16620,"max":[4826.0],"min":[0.0],"type":"SCALAR"},{"bufferView":31,"componentType":5126,"count":4827,"max":[0.04089999943971634,0.030224662274122239,0.07578662037849426],"min":[0.0005000000237487257,-0.0005158770945854485,0.04982951283454895],"type":"VEC3"},{"bufferView":32,"componentType":5126,"count":4827,"max":[1.0,1.0,1.0],"min":[-1.0,-1.0,-1.0],"type":"VEC3"},{"bufferView":33,"componentType":5125,"count":468,"max":[189.0],"min":[0.0],"type":"SCALAR"},{"bufferView":34,"componentType":5126,"count":190,"max":[0.007493398617953062,0.004000000189989805,0.003432503202930093],"min":[-0.007256601471453905,0.0,-0.0035674970131367447],"type":"VEC3"},{"bufferView":35,"componentType":5126,"count":190,"max":[1.0,0.0,1.0],"min":[-1.0,-1.0,-1.0],"type":"VEC3"},{"bufferView":36,"componentType":5125,"count":75,"max":[26.0],"min":[0.0],"type":"SCALAR"},{"bufferView":37,"componentType":5126,"count":27,"max":[0.007493398617953062,0.004000000189989805,0.003432503202930093],"min":[-0.007256601471453905,0.004000000189989805,-0.0035674970131367447],"type":"VEC3"},{"bufferView":38,"componentType":5126,"count":27,"max":[0.0,1.0,0.0],"min":[0.0,1.0,0.0],"type":"VEC3"},{"bufferView":39,"componentType":5125,"count":69,"max":[24.0],"min":[0.0],"type":"SCALAR"},{"bufferView":40,"componentType":5126,"count":25,"max":[-0.002623730106279254,0.003000000026077032,0.000691455730702728],"min":[-0.004516592249274254,0.003000000026077032,-0.0008268009987659752],"type":"VEC3"},{"bufferView":41,"componentType":5126,"count":25,"max":[0.0,-1.0,0.0],"min":[0.0,-1.0,0.0],"type":"VEC3"}],"asset":{"generator":"SimLab GLTF","version":"2.0"},"bufferViews":[{"buffer":0,"byteLength":206568,"target":34963},{"buffer":0,"byteLength":218880,"byteOffset":206568,"byteStride":12,"target":34962},{"buffer":0,"byteLength":218880,"byteOffset":425448,"byteStride":12,"target":34962},{"buffer":0,"byteLength":190296,"byteOffset":644328,"target":34963},{"buffer":0,"byteLength":190824,"byteOffset":834624,"byteStride":12,"target":34962},{"buffer":0,"byteLength":190824,"byteOffset":1025448,"byteStride":12,"target":34962},{"buffer":0,"byteLength":168,"byteOffset":1216272,"target":34963},{"buffer":0,"byteLength":228,"byteOffset":1216440,"byteStride":12,"target":34962},{"buffer":0,"byteLength":228,"byteOffset":1216668,"byteStride":12,"target":34962},{"buffer":0,"byteLength":14976,"byteOffset":1216896,"target":34963},{"buffer":0,"byteLength":16968,"byteOffset":1231872,"byteStride":12,"target":34962},{"buffer":0,"byteLength":16968,"byteOffset":1248840,"byteStride":12,"target":34962},{"buffer":0,"byteLength":20448,"byteOffset":1265808,"target":34963},{"buffer":0,"byteLength":25560,"byteOffset":1286256,"byteStride":12,"target":34962},{"buffer":0,"byteLength":25560,"byteOffset":1311816,"byteStride":12,"target":34962},{"buffer":0,"byteLength":239496,"byteOffset":1337376,"target":34963},{"buffer":0,"byteLength":245556,"byteOffset":1576872,"byteStride":12,"target":34962},{"buffer":0,"byteLength":245556,"byteOffset":1822428,"byteStride":12,"target":34962},{"buffer":0,"byteLength":1339632,"byteOffset":2067984,"target":34963},{"buffer":0,"byteLength":1363644,"byteOffset":3407616,"byteStride":12,"target":34962},{"buffer":0,"byteLength":1363644,"byteOffset":4771260,"byteStride":12,"target":34962},{"buffer":0,"byteLength":1008,"byteOffset":6134904,"target":34963},{"buffer":0,"byteLength":1152,"byteOffset":6135912,"byteStride":12,"target":34962},{"buffer":0,"byteLength":1152,"byteOffset":6137064,"byteStride":12,"target":34962},{"buffer":0,"byteLength":385644,"byteOffset":6138216,"target":34963},{"buffer":0,"byteLength":320736,"byteOffset":6523860,"byteStride":12,"target":34962},{"buffer":0,"byteLength":320736,"byteOffset":6844596,"byteStride":12,"target":34962},{"buffer":0,"byteLength":14532,"byteOffset":7165332,"target":34963},{"buffer":0,"byteLength":15516,"byteOffset":7179864,"byteStride":12,"target":34962},{"buffer":0,"byteLength":15516,"byteOffset":7195380,"byteStride":12,"target":34962},{"buffer":0,"byteLength":66480,"byteOffset":7210896,"target":34963},{"buffer":0,"byteLength":57924,"byteOffset":7277376,"byteStride":12,"target":34962},{"buffer":0,"byteLength":57924,"byteOffset":7335300,"byteStride":12,"target":34962},{"buffer":0,"byteLength":1872,"byteOffset":7393224,"target":34963},{"buffer":0,"byteLength":2280,"byteOffset":7395096,"byteStride":12,"target":34962},{"buffer":0,"byteLength":2280,"byteOffset":7397376,"byteStride":12,"target":34962},{"buffer":0,"byteLength":300,"byteOffset":7399656,"target":34963},{"buffer":0,"byteLength":324,"byteOffset":7399956,"byteStride":12,"target":34962},{"buffer":0,"byteLength":324,"byteOffset":7400280,"byteStride":12,"target":34962},{"buffer":0,"byteLength":276,"byteOffset":7400604,"target":34963},{"buffer":0,"byteLength":300,"byteOffset":7400880,"byteStride":12,"target":34962},{"buffer":0,"byteLength":300,"byteOffset":7401180,"byteStride":12,"target":34962}],"buffers":[{"byteLength":7401480,"uri":"razorfinal2.bin"}],"extensionsUsed":["KHR_materials_pbrSpecularGlossiness"],"materials":[{"extensions":{"KHR_materials_pbrSpecularGlossiness":{"diffuseFactor":[0.9372549057006836,0.9372549057006836,0.9372549057006836,1.0],"specularFactor":[0.18745097517967225,0.18745097517967225,0.18745097517967225],"glossinessFactor":0.5}},"name":"texture","alphaMode":"MASK","doubleSided":true,"pbrMetallicRoughness":{"baseColorFactor":[0.9372549057006836,0.9372549057006836,0.9372549057006836,1.0],"metallicFactor":0.5,"roughnessFactor":0.5}},{"extensions":{"KHR_materials_pbrSpecularGlossiness":{"diffuseFactor":[0.09333334118127823,0.3843137323856354,0.6011765003204346,1.0],"specularFactor":[0.006666666828095913,0.027450982481241227,0.042941175401210788],"glossinessFactor":0.5}},"name":"Mtl","alphaMode":"MASK","doubleSided":true,"pbrMetallicRoughness":{"baseColorFactor":[0.09333334118127823,0.3843137323856354,0.6011765003204346,1.0],"metallicFactor":0.5}},{"extensions":{"KHR_materials_pbrSpecularGlossiness":{"diffuseFactor":[0.07058823853731156,0.8039215803146362,0.7686274647712708,1.0],"specularFactor":[0.021176472306251527,0.24117647111415864,0.23058824241161347],"glossinessFactor":0.5}},"name":"texture1","alphaMode":"MASK","doubleSided":true,"pbrMetallicRoughness":{"baseColorFactor":[0.07058823853731156,0.8039215803146362,0.7686274647712708,1.0],"metallicFactor":0.5,"roughnessFactor":0.5}},{"extensions":{"KHR_materials_pbrSpecularGlossiness":{"diffuseFactor":[0.7686274647712708,0.7686274647712708,0.7686274647712708,1.0],"specularFactor":[0.6149019598960877,0.6149019598960877,0.6149019598960877],"glossinessFactor":0.5}},"name":"Mtl2","alphaMode":"MASK","doubleSided":true,"pbrMetallicRoughness":{"baseColorFactor":[0.7686274647712708,0.7686274647712708,0.7686274647712708,1.0],"metallicFactor":0.5,"roughnessFactor":0.5}},{"extensions":{"KHR_materials_pbrSpecularGlossiness":{"diffuseFactor":[0.7686274647712708,0.7686274647712708,0.7686274647712708,1.0],"specularFactor":[0.6149019598960877,0.6149019598960877,0.6149019598960877],"glossinessFactor":0.5}},"name":"Mtl3","alphaMode":"MASK","doubleSided":true,"pbrMetallicRoughness":{"baseColorFactor":[0.7686274647712708,0.7686274647712708,0.7686274647712708,1.0],"metallicFactor":0.5,"roughnessFactor":0.5}},{"extensions":{"KHR_materials_pbrSpecularGlossiness":{"diffuseFactor":[0.09333334118127823,0.3843137323856354,0.6011765003204346,1.0],"specularFactor":[0.006666666828095913,0.027450982481241227,0.042941175401210788],"glossinessFactor":0.5}},"name":"Mtl4","alphaMode":"MASK","doubleSided":true,"pbrMetallicRoughness":{"baseColorFactor":[0.09333334118127823,0.3843137323856354,0.6011765003204346,1.0],"metallicFactor":0.5}},{"extensions":{"KHR_materials_pbrSpecularGlossiness":{"diffuseFactor":[0.09333334118127823,0.3843137323856354,0.6011765003204346,1.0],"specularFactor":[0.006666666828095913,0.027450982481241227,0.042941175401210788],"glossinessFactor":0.5}},"name":"Mtl5","alphaMode":"MASK","doubleSided":true,"pbrMetallicRoughness":{"baseColorFactor":[0.09333334118127823,0.3843137323856354,0.6011765003204346,1.0],"metallicFactor":0.5}},{"extensions":{"KHR_materials_pbrSpecularGlossiness":{"diffuseFactor":[0.7921568751335144,0.8196078538894653,0.9333333373069763,1.0],"specularFactor":[0.3960784375667572,0.40980392694473269,0.46666666865348818],"glossinessFactor":0.5}},"name":"Mtl6","alphaMode":"MASK","doubleSided":true,"pbrMetallicRoughness":{"baseColorFactor":[0.7921568751335144,0.8196078538894653,0.9333333373069763,1.0],"metallicFactor":0.5,"roughnessFactor":0.5}},{"extensions":{"KHR_materials_pbrSpecularGlossiness":{"diffuseFactor":[0.7803921699523926,0.7607843279838562,0.7411764860153198,1.0],"specularFactor":[0.6243137121200562,0.608627438545227,0.592941164970398],"glossinessFactor":0.5}},"name":"Mtl8","alphaMode":"MASK","doubleSided":true,"pbrMetallicRoughness":{"baseColorFactor":[0.7803921699523926,0.7607843279838562,0.7411764860153198,1.0],"metallicFactor":0.5,"roughnessFactor":0.5}},{"extensions":{"KHR_materials_pbrSpecularGlossiness":{"diffuseFactor":[1.0,0.41960784792900088,0.41960784792900088,1.0],"specularFactor":[0.30000001192092898,0.1258823573589325,0.1258823573589325],"glossinessFactor":0.5}},"name":"Mtl7","alphaMode":"MASK","doubleSided":true,"pbrMetallicRoughness":{"baseColorFactor":[1.0,0.41960784792900088,0.41960784792900088,1.0],"metallicFactor":0.5,"roughnessFactor":0.5}},{"extensions":{"KHR_materials_pbrSpecularGlossiness":{"diffuseFactor":[1.0,0.9019607901573181,0.4274509847164154,1.0],"specularFactor":[0.5,0.45098039507865908,0.2137254923582077],"glossinessFactor":0.5}},"name":"Mtl9","alphaMode":"MASK","doubleSided":true,"pbrMetallicRoughness":{"baseColorFactor":[1.0,0.9019607901573181,0.4274509847164154,1.0],"metallicFactor":0.5,"roughnessFactor":0.5}},{"extensions":{"KHR_materials_pbrSpecularGlossiness":{"diffuseFactor":[1.0,0.41960784792900088,0.41960784792900088,1.0],"specularFactor":[0.30000001192092898,0.1258823573589325,0.1258823573589325],"glossinessFactor":0.5}},"name":"Mtlb","alphaMode":"MASK","doubleSided":true,"pbrMetallicRoughness":{"baseColorFactor":[1.0,0.41960784792900088,0.41960784792900088,1.0],"metallicFactor":0.5,"roughnessFactor":0.5}},{"extensions":{"KHR_materials_pbrSpecularGlossiness":{"diffuseFactor":[1.0,0.41960784792900088,0.41960784792900088,1.0],"specularFactor":[0.30000001192092898,0.1258823573589325,0.1258823573589325],"glossinessFactor":0.5}},"name":"texture10","alphaMode":"MASK","doubleSided":true,"pbrMetallicRoughness":{"baseColorFactor":[1.0,0.41960784792900088,0.41960784792900088,1.0],"metallicFactor":0.5,"roughnessFactor":0.5}},{"extensions":{"KHR_materials_pbrSpecularGlossiness":{"diffuseFactor":[0.7921568751335144,0.8196078538894653,0.9333333373069763,1.0],"specularFactor":[0.3960784375667572,0.40980392694473269,0.46666666865348818],"glossinessFactor":0.5}},"name":"Mtla","alphaMode":"MASK","doubleSided":true,"pbrMetallicRoughness":{"baseColorFactor":[0.7921568751335144,0.8196078538894653,0.9333333373069763,1.0],"metallicFactor":0.5,"roughnessFactor":0.5}}],"meshes":[{"primitives":[{"attributes":{"NORMAL":2,"POSITION":1},"indices":0,"material":0,"mode":4}]},{"primitives":[{"attributes":{"NORMAL":5,"POSITION":4},"indices":3,"material":1,"mode":4}]},{"primitives":[{"attributes":{"NORMAL":8,"POSITION":7},"indices":6,"material":2,"mode":4}]},{"primitives":[{"attributes":{"NORMAL":11,"POSITION":10},"indices":9,"material":3,"mode":4}]},{"primitives":[{"attributes":{"NORMAL":14,"POSITION":13},"indices":12,"material":4,"mode":4}]},{"primitives":[{"attributes":{"NORMAL":11,"POSITION":10},"indices":9,"material":3,"mode":4}]},{"primitives":[{"attributes":{"NORMAL":17,"POSITION":16},"indices":15,"material":5,"mode":4}]},{"primitives":[{"attributes":{"NORMAL":20,"POSITION":19},"indices":18,"material":6,"mode":4}]},{"primitives":[{"attributes":{"NORMAL":23,"POSITION":22},"indices":21,"material":7,"mode":4}]},{"primitives":[{"attributes":{"NORMAL":26,"POSITION":25},"indices":24,"material":8,"mode":4}]},{"primitives":[{"attributes":{"NORMAL":29,"POSITION":28},"indices":27,"material":9,"mode":4}]},{"primitives":[{"attributes":{"NORMAL":32,"POSITION":31},"indices":30,"material":10,"mode":4}]},{"primitives":[{"attributes":{"NORMAL":35,"POSITION":34},"indices":33,"material":11,"mode":4}]},{"primitives":[{"attributes":{"NORMAL":38,"POSITION":37},"indices":36,"material":12,"mode":4}]},{"primitives":[{"attributes":{"NORMAL":41,"POSITION":40},"indices":39,"material":13,"mode":4}]},{"primitives":[{"attributes":{"NORMAL":35,"POSITION":34},"indices":33,"material":11,"mode":4}]},{"primitives":[{"attributes":{"NORMAL":38,"POSITION":37},"indices":36,"material":12,"mode":4}]},{"primitives":[{"attributes":{"NORMAL":41,"POSITION":40},"indices":39,"material":13,"mode":4}]}],"nodes":[{"children":[1,2,4,17,19,24,26,31],"matrix":[1.0,0.0,0.0,0.0,0.0,4.4896593387466768e-11,-1.0,0.0,0.0,1.0,4.4896593387466768e-11,0.0,0.0,0.0,0.0,1.0]},{"name":"Camera-1","rotation":[-0.7071067690849304,0.0,0.0,-0.7071067690849304],"translation":[0.006176828406751156,-0.6093259453773499,0.016912302002310754]},{"name":"Blade Guard-1","children":[3],"matrix":[-1.0,-5.759281940243e-16,1.0883221407409494e-15,0.0,1.1803685758443638e-15,-0.6999973058700562,0.7141454815864563,0.0,3.505260034359118e-16,0.7141454815864563,0.6999973058700562,0.0,-0.015416541136801243,-0.041003238409757617,-0.010750970803201199,1.0]},{"name":"Body_1","mesh":0,"rotation":[0.0,0.0,0.0,-1.0]},{"name":"Head Assembly-1","children":[5,9,11,13,15],"rotation":[0.0,0.0,0.0,-1.0]},{"name":"Upper Head-1","children":[6],"rotation":[0.968721330165863,1.5374058274249378e-16,-6.001655653539489e-16,-0.24815115332603455],"translation":[0.02588345855474472,-0.04368710145354271,0.002436817856505513]},{"name":"Body_1","children":[7,8],"rotation":[0.0,0.0,0.0,-1.0]},{"name":"3DGeom-582","mesh":1,"rotation":[0.0,0.0,0.0,-1.0]},{"name":"3DGeom-583","mesh":2,"rotation":[0.0,0.0,0.0,-1.0]},{"name":"Blade-1","children":[10],"rotation":[0.968721330165863,1.5374058274249378e-16,-6.001655653539489e-16,-0.24815115332603455],"translation":[0.024883458390831949,-0.04423193261027336,0.0012257189955562354]},{"name":"Body_1","mesh":3,"rotation":[0.0,0.0,0.0,-1.0]},{"name":"Blade Spacer-1","children":[12],"rotation":[0.968721330165863,1.5374058274249378e-16,-6.001655653539489e-16,-0.24815115332603455],"translation":[0.024883458390831949,-0.04393293708562851,0.0017203924944624305]},{"name":"Body_1","mesh":4,"rotation":[0.0,0.0,0.0,-1.0]},{"name":"Blade-2","children":[14],"rotation":[0.968721330165863,1.5374058274249378e-16,-6.001655653539489e-16,-0.24815115332603455],"translation":[0.024883458390831949,-0.04301973432302475,0.00017969204054679722]},{"name":"Body_1","mesh":5,"rotation":[0.0,0.0,0.0,-1.0]},{"name":"Lower Head-1","children":[16],"rotation":[0.968721330165863,1.5374058274249378e-16,-6.001655653539489e-16,-0.24815115332603455],"translation":[0.02588345855474472,-0.04240846261382103,0.0009368243627250195]},{"name":"Body_1","mesh":6,"rotation":[0.0,0.0,0.0,-1.0]},{"name":"Razor Handle-1","children":[18],"rotation":[-0.7071067690849304,0.0,0.0,-0.7071067690849304],"translation":[0.011083458550274372,0.0012379384133964778,0.017668522894382478]},{"name":"Body_1","mesh":7,"rotation":[0.0,0.0,0.0,-1.0]},{"name":"springs-1","children":[20],"rotation":[-0.8549118638038635,0.0,0.0,-0.5187732577323914],"translation":[-0.0141306072473526,-0.021100014448165895,0.009821646846830845]},{"name":"Body_1","children":[21,22,23],"rotation":[0.0,0.0,0.0,-1.0]},{"name":"3DGeom-3133","mesh":8,"rotation":[0.0,0.0,0.0,-1.0]},{"name":"3DGeom-3134","mesh":9,"rotation":[0.0,0.0,0.0,-1.0]},{"name":"3DGeom-3135","mesh":10,"rotation":[0.0,0.0,0.0,-1.0]},{"name":"hose_windowed_bipass-1","children":[25],"matrix":[-0.9996573328971863,0.01945326291024685,-0.017515797168016435,0.0,-1.484847929356176e-17,0.6691306233406067,0.7431448101997376,0.0,0.026176948100328447,0.7428901791572571,-0.6689013242721558,0.0,0.025316279381513597,-0.10423991084098816,0.0579790398478508,1.0]},{"name":"Body_1","mesh":11,"rotation":[0.0,0.0,0.0,-1.0]},{"name":"finalTop (1)-1","children":[27],"matrix":[0.6857634782791138,0.5214831233024597,-0.5077241659164429,0.0,-0.010196810588240624,-0.690639317035675,-0.7231274843215942,0.0,-0.7277530431747437,0.501071572303772,-0.46829771995544436,0.0,0.03376459330320358,-0.040639374405145648,0.0030760588124394418,1.0]},{"name":"Body_1","children":[28,29,30],"rotation":[0.0,0.0,0.0,-1.0]},{"name":"3DGeom-3199","mesh":12,"rotation":[0.0,0.0,0.0,-1.0]},{"name":"3DGeom-3200","mesh":13,"rotation":[0.0,0.0,0.0,-1.0]},{"name":"3DGeom-3201","mesh":14,"rotation":[0.0,0.0,0.0,-1.0]},{"name":"finalTop (1)-2","children":[32],"matrix":[-0.5513695478439331,0.5824840664863586,-0.5972470045089722,0.0,-0.07400000840425492,-0.7472246289253235,-0.6604387760162354,0.0,-0.8309727311134338,-0.31994953751564028,0.4551007151603699,0.0,-0.02186594344675541,-0.039583832025527957,0.003052343148738146,1.0]},{"name":"Body_1","children":[33,34,35],"rotation":[0.0,0.0,0.0,-1.0]},{"name":"3DGeom-3199","mesh":15,"rotation":[0.0,0.0,0.0,-1.0]},{"name":"3DGeom-3200","mesh":16,"rotation":[0.0,0.0,0.0,-1.0]},{"name":"3DGeom-3201","mesh":17,"rotation":[0.0,0.0,0.0,-1.0]}],"scene":0,"scenes":[{"nodes":[0]}]}